<svg xmlns="http://www.w3.org/2000/svg" version="1.1" xmlns:xlink="http://www.w3.org/1999/xlink" xmlns:svgjs="http://svgjs.dev/svgjs" width="2000" height="595" viewBox="0 0 2000 595"><g transform="matrix(1,0,0,1,-1.2121212121212466,-0.9567121643916607)"><svg viewBox="0 0 396 118" data-background-color="#ffffff" preserveAspectRatio="xMidYMid meet" height="595" width="2000" xmlns="http://www.w3.org/2000/svg" xmlns:xlink="http://www.w3.org/1999/xlink"><g id="tight-bounds" transform="matrix(1,0,0,1,0.2400000000000091,0.1897345132743169)"><svg viewBox="0 0 395.52 117.62053097345134" height="117.62053097345134" width="395.52"><g><svg viewBox="0 0 395.52 117.62053097345134" height="117.62053097345134" width="395.52"><g><svg viewBox="0 0 395.52 117.62053097345134" height="117.62053097345134" width="395.52"><g id="textblocktransform"><svg viewBox="0 0 395.52 117.62053097345134" height="117.62053097345134" width="395.52" id="textblock"><g><svg viewBox="0 0 395.52 117.62053097345134" height="117.62053097345134" width="395.52"><g transform="matrix(1,0,0,1,0,0)"><svg width="395.52" viewBox="0.35 -40 139.66 40.33" height="117.62053097345134" data-palette-color="#ff851b"><g class="wordmark-text-0" data-fill-palette-color="primary" id="text-0"><path d="M10.4 0L6.45 0 6.45-34.63 10.4-34.63 10.4 0ZM16.48-36.43L0.35-36.43 0.35-40 16.48-40 16.48-36.43ZM19.17-6.15L19.17-6.15Q19.12-7.95 19.08-10.19 19.05-12.43 19.05-14.83 19.05-17.23 19.07-19.54 19.1-21.85 19.17-23.8L19.17-23.8Q19.32-27 20.77-28.54 22.22-30.08 25.35-30.33L25.35-30.33 25.35-27.15Q24.2-26.93 23.71-26.21 23.22-25.5 23.2-24.3L23.2-24.3Q23.12-22 23.1-19.71 23.07-17.43 23.07-15.14 23.07-12.85 23.1-10.51 23.12-8.18 23.2-5.75L23.2-5.75Q23.22-4.4 23.75-3.73 24.27-3.05 25.35-2.85L25.35-2.85 25.35 0.33Q22.15 0.08 20.73-1.46 19.32-3 19.17-6.15ZM28.02 0.33L28.02 0.33 28.02-2.85Q29.05-3.08 29.51-3.76 29.97-4.45 30.02-5.78L30.02-5.78Q30.07-6.53 30.07-7.8 30.07-9.08 30-10.5L30-10.5 33.92-10.5Q34-9.65 34.01-8.3 34.02-6.95 33.97-6.15L33.97-6.15Q33.82-3 32.47-1.45 31.12 0.1 28.02 0.33ZM33.92-14.2L25.42-14.2 25.42-17.1 30.05-17.1Q30.1-18.55 30.1-20.04 30.1-21.53 30.09-22.68 30.07-23.83 30.02-24.3L30.02-24.3Q29.97-25.6 29.47-26.26 28.97-26.93 28.02-27.15L28.02-27.15 28.02-30.33Q31.1-30.08 32.47-28.53 33.85-26.98 33.97-23.93L33.97-23.93Q34-23.38 34.02-21.75 34.05-20.13 34.03-18.09 34.02-16.05 33.92-14.2L33.92-14.2ZM38.37-6.15L38.37-6.15Q38.32-7.95 38.28-10.19 38.25-12.43 38.25-14.83 38.25-17.23 38.27-19.54 38.3-21.85 38.37-23.8L38.37-23.8Q38.52-27 39.96-28.54 41.4-30.08 44.5-30.33L44.5-30.33 44.5-27.18Q43.4-26.95 42.91-26.29 42.42-25.63 42.4-24.3L42.4-24.3Q42.32-21.98 42.3-19.7 42.27-17.43 42.27-15.13 42.27-12.83 42.3-10.5 42.32-8.18 42.4-5.75L42.4-5.75Q42.42-4.42 42.92-3.75 43.42-3.08 44.5-2.88L44.5-2.88 44.5 0.33Q41.32 0.08 39.92-1.46 38.52-3 38.37-6.15ZM47.15 0.33L47.15 0.33 47.15-2.85Q48.25-3.05 48.72-3.73 49.2-4.4 49.22-5.78L49.22-5.78Q49.25-6.83 49.25-7.93 49.25-9.03 49.2-10.5L49.2-10.5 53.12-10.5Q53.2-9.6 53.21-8.31 53.22-7.03 53.17-6.15L53.17-6.15Q53.05-3 51.66-1.45 50.27 0.1 47.15 0.33ZM53.12-19.58L49.2-19.58Q49.25-20.4 49.25-21.23 49.25-22.05 49.25-22.85 49.25-23.65 49.22-24.33L49.22-24.33Q49.2-25.63 48.71-26.29 48.22-26.95 47.15-27.15L47.15-27.15 47.15-30.33Q50.27-30.1 51.7-28.58 53.12-27.05 53.17-23.93L53.17-23.93Q53.22-22.9 53.21-21.73 53.2-20.55 53.12-19.58L53.12-19.58ZM62.09 0L58.04 0 58.04-40 62.09-40 62.09 0ZM73.44 0L69.44 0 69.39-24.35Q69.39-25.95 68.72-26.65 68.04-27.35 66.52-27.35L66.52-27.35Q65.49-27.35 64.72-27.03L64.72-27.03 64.72-29.48Q65.32-29.93 66.12-30.15 66.92-30.38 67.97-30.38L67.97-30.38Q70.74-30.38 72.07-28.88 73.39-27.38 73.39-24.05L73.39-24.05 73.44 0ZM86.47 0L82.52 0 82.52-34.63 86.47-34.63 86.47 0ZM92.54-36.43L76.42-36.43 76.42-40 92.54-40 92.54-36.43ZM94.74-5.58L94.74-5.58Q94.71-6.2 94.7-6.81 94.69-7.43 94.71-8.08L94.71-8.08Q94.81-9.88 95.38-11.29 95.94-12.7 97.19-13.88 98.44-15.05 100.61-16.07L100.61-16.07Q101.21-16.38 101.85-16.68 102.49-16.98 103.16-17.28L103.16-17.28 103.16-14.45Q102.76-14.25 102.33-13.99 101.89-13.73 101.41-13.4L101.41-13.4Q99.79-12.45 99.25-11.03 98.71-9.6 98.69-8.03L98.69-8.03Q98.69-7.35 98.69-6.84 98.69-6.33 98.71-5.83L98.71-5.83Q98.84-4.35 99.64-3.51 100.44-2.68 101.84-2.68L101.84-2.68Q102.59-2.68 103.16-2.9L103.16-2.9 103.16-0.3Q102.14 0.33 100.56 0.33L100.56 0.33Q97.79 0.33 96.38-1.13 94.96-2.58 94.74-5.58ZM99.21-19.58L95.39-19.58Q95.31-20.65 95.31-21.78 95.31-22.9 95.34-23.93L95.34-23.93Q95.46-26.98 96.8-28.53 98.14-30.08 101.41-30.33L101.41-30.33 101.41-27.18Q100.41-26.98 99.84-26.34 99.26-25.7 99.21-24.45L99.21-24.45Q99.16-23.73 99.15-22.76 99.14-21.8 99.16-20.93 99.19-20.05 99.21-19.58L99.21-19.58ZM109.69 0L105.81 0 105.81-24.18Q105.81-25.43 105.41-26.13 105.01-26.83 104.06-27.08L104.06-27.08 104.06-30.33Q107.29-30.08 108.51-28.41 109.74-26.75 109.74-23.4L109.74-23.4 109.69 0ZM119.11 0L115.14 0 115.14-40 119.11-40 119.11 0ZM128.53 0L124.66 0 124.66-16.8 128.96-16.8 131.61-23.65 134.51-30 138.68-30 128.53-8.8 128.53 0ZM127.93-18.7L124.66-18.7 124.66-40 128.46-40 128.46-26.35 127.93-18.7ZM135.81 0L131.58-10.8 134.03-15 140.01 0 135.81 0Z" fill="#ff851b" data-fill-palette-color="primary"></path></g></svg></g></svg></g></svg></g></svg></g></svg></g><defs></defs></svg><rect width="395.52" height="117.62053097345134" fill="none" stroke="none" visibility="hidden"></rect></g></svg></g></svg>